<mxfile host="app.diagrams.net" agent="Mozilla/5.0 (Windows NT 10.0; Win64; x64) AppleWebKit/537.36 (KHTML, like Gecko) Chrome/139.0.0.0 Safari/537.36" version="28.1.1">
  <diagram name="PÃ¡gina-1" id="QUR0Y8Mu5v9CyN_jPvk7">
    <mxGraphModel dx="922" dy="976" grid="1" gridSize="10" guides="1" tooltips="1" connect="1" arrows="1" fold="1" page="1" pageScale="1" pageWidth="827" pageHeight="1169" math="0" shadow="0">
      <root>
        <mxCell id="0" />
        <mxCell id="1" parent="0" />
        <mxCell id="VAvJB64YvHKmMoGOeDSp-1" value="Cliente" style="swimlane;whiteSpace=wrap;html=1;" parent="1" vertex="1">
          <mxGeometry x="270" y="80" width="200" height="200" as="geometry" />
        </mxCell>
        <mxCell id="VAvJB64YvHKmMoGOeDSp-2" value="&lt;font style=&quot;font-size: 15px;&quot;&gt;idCliente&lt;/font&gt;&lt;div&gt;&lt;font style=&quot;font-size: 15px;&quot;&gt;nome&lt;/font&gt;&lt;/div&gt;&lt;div style=&quot;&quot;&gt;&lt;font style=&quot;font-size: 15px;&quot;&gt;telefone&lt;/font&gt;&lt;/div&gt;" style="whiteSpace=wrap;html=1;align=left;" parent="VAvJB64YvHKmMoGOeDSp-1" vertex="1">
          <mxGeometry y="20" width="200" height="80" as="geometry" />
        </mxCell>
        <mxCell id="VAvJB64YvHKmMoGOeDSp-3" value="&lt;font style=&quot;font-size: 15px;&quot;&gt;cadastrar()&lt;/font&gt;&lt;div&gt;&lt;font style=&quot;font-size: 15px;&quot;&gt;listar()&lt;/font&gt;&lt;/div&gt;" style="text;html=1;align=left;verticalAlign=middle;resizable=0;points=[];autosize=1;strokeColor=none;fillColor=none;" parent="VAvJB64YvHKmMoGOeDSp-1" vertex="1">
          <mxGeometry y="100" width="100" height="50" as="geometry" />
        </mxCell>
        <mxCell id="VAvJB64YvHKmMoGOeDSp-4" value="ItemCardapio" style="swimlane;whiteSpace=wrap;html=1;" parent="1" vertex="1">
          <mxGeometry x="570" y="80" width="160" height="200" as="geometry" />
        </mxCell>
        <mxCell id="VAvJB64YvHKmMoGOeDSp-5" value="&lt;font style=&quot;font-size: 15px;&quot;&gt;idItem&lt;/font&gt;&lt;div&gt;&lt;font style=&quot;font-size: 15px;&quot;&gt;nome&lt;/font&gt;&lt;/div&gt;&lt;div style=&quot;&quot;&gt;&lt;font style=&quot;font-size: 15px;&quot;&gt;preco&lt;/font&gt;&lt;/div&gt;" style="whiteSpace=wrap;html=1;align=left;" parent="VAvJB64YvHKmMoGOeDSp-4" vertex="1">
          <mxGeometry y="20" width="160" height="80" as="geometry" />
        </mxCell>
        <mxCell id="VAvJB64YvHKmMoGOeDSp-6" value="&lt;font style=&quot;font-size: 15px;&quot;&gt;cadastrar()&lt;/font&gt;&lt;div&gt;&lt;font style=&quot;font-size: 15px;&quot;&gt;listar()&lt;/font&gt;&lt;/div&gt;" style="text;html=1;align=left;verticalAlign=middle;resizable=0;points=[];autosize=1;strokeColor=none;fillColor=none;" parent="VAvJB64YvHKmMoGOeDSp-4" vertex="1">
          <mxGeometry y="100" width="100" height="50" as="geometry" />
        </mxCell>
        <mxCell id="VAvJB64YvHKmMoGOeDSp-34" style="edgeStyle=none;rounded=0;orthogonalLoop=1;jettySize=auto;html=1;exitX=0.5;exitY=1;exitDx=0;exitDy=0;entryX=0.5;entryY=0;entryDx=0;entryDy=0;elbow=vertical;" parent="1" source="VAvJB64YvHKmMoGOeDSp-36" target="VAvJB64YvHKmMoGOeDSp-32" edge="1">
          <mxGeometry relative="1" as="geometry" />
        </mxCell>
        <mxCell id="VAvJB64YvHKmMoGOeDSp-11" value="Pedido" style="swimlane;whiteSpace=wrap;html=1;" parent="1" vertex="1">
          <mxGeometry x="270" y="470" width="200" height="200" as="geometry" />
        </mxCell>
        <mxCell id="VAvJB64YvHKmMoGOeDSp-12" value="&lt;font style=&quot;font-size: 15px;&quot;&gt;idPedido&lt;/font&gt;&lt;div&gt;&lt;span style=&quot;font-size: 15px;&quot;&gt;&lt;font style=&quot;color: light-dark(rgb(0, 0, 0), rgb(204, 204, 0));&quot;&gt;status&lt;/font&gt;&lt;/span&gt;&lt;/div&gt;&lt;div style=&quot;&quot;&gt;&lt;font style=&quot;font-size: 15px;&quot;&gt;dataHora&lt;/font&gt;&lt;/div&gt;" style="whiteSpace=wrap;html=1;align=left;" parent="VAvJB64YvHKmMoGOeDSp-11" vertex="1">
          <mxGeometry y="20" width="200" height="80" as="geometry" />
        </mxCell>
        <mxCell id="VAvJB64YvHKmMoGOeDSp-13" value="&lt;font style=&quot;font-size: 15px;&quot;&gt;registrar()&lt;/font&gt;&lt;div&gt;&lt;font style=&quot;font-size: 15px;&quot;&gt;atualizarStatus()&lt;/font&gt;&lt;/div&gt;&lt;div&gt;&lt;font style=&quot;font-size: 15px;&quot;&gt;consultarStatus()&lt;/font&gt;&lt;/div&gt;" style="text;html=1;align=left;verticalAlign=middle;resizable=0;points=[];autosize=1;strokeColor=none;fillColor=none;" parent="VAvJB64YvHKmMoGOeDSp-11" vertex="1">
          <mxGeometry x="4" y="90" width="140" height="70" as="geometry" />
        </mxCell>
        <mxCell id="VAvJB64YvHKmMoGOeDSp-27" style="edgeStyle=none;rounded=0;orthogonalLoop=1;jettySize=auto;html=1;elbow=vertical;" parent="1" source="VAvJB64YvHKmMoGOeDSp-15" edge="1">
          <mxGeometry relative="1" as="geometry">
            <mxPoint x="640" y="280" as="targetPoint" />
          </mxGeometry>
        </mxCell>
        <mxCell id="VAvJB64YvHKmMoGOeDSp-15" value="ItemPedido" style="swimlane;whiteSpace=wrap;html=1;" parent="1" vertex="1">
          <mxGeometry x="570" y="480" width="140" height="90" as="geometry" />
        </mxCell>
        <mxCell id="VAvJB64YvHKmMoGOeDSp-16" value="&lt;font style=&quot;font-size: 16px;&quot;&gt;quantidade&lt;/font&gt;&lt;div&gt;&lt;font style=&quot;font-size: 16px;&quot;&gt;subtotal&amp;nbsp; &amp;nbsp; &amp;nbsp; &amp;nbsp; &amp;nbsp;&amp;nbsp;&amp;nbsp; &amp;nbsp; &amp;nbsp; &amp;nbsp;&amp;nbsp;&lt;/font&gt;&lt;/div&gt;" style="text;html=1;align=left;verticalAlign=middle;resizable=0;points=[];autosize=1;strokeColor=none;fillColor=none;" parent="VAvJB64YvHKmMoGOeDSp-15" vertex="1">
          <mxGeometry y="20" width="160" height="50" as="geometry" />
        </mxCell>
        <mxCell id="VAvJB64YvHKmMoGOeDSp-23" value="" style="endArrow=none;html=1;rounded=0;elbow=vertical;entryX=0.5;entryY=1;entryDx=0;entryDy=0;exitX=0.5;exitY=0;exitDx=0;exitDy=0;" parent="1" source="VAvJB64YvHKmMoGOeDSp-11" target="VAvJB64YvHKmMoGOeDSp-1" edge="1">
          <mxGeometry width="50" height="50" relative="1" as="geometry">
            <mxPoint x="330" y="350" as="sourcePoint" />
            <mxPoint x="380" y="300" as="targetPoint" />
          </mxGeometry>
        </mxCell>
        <mxCell id="VAvJB64YvHKmMoGOeDSp-28" value="&lt;font style=&quot;font-size: 20px;&quot;&gt;*&lt;/font&gt;" style="text;html=1;align=center;verticalAlign=middle;whiteSpace=wrap;rounded=0;" parent="1" vertex="1">
          <mxGeometry x="370" y="430" width="60" height="30" as="geometry" />
        </mxCell>
        <mxCell id="VAvJB64YvHKmMoGOeDSp-29" value="&lt;font style=&quot;font-size: 19px;&quot;&gt;1&lt;/font&gt;" style="text;html=1;align=center;verticalAlign=middle;whiteSpace=wrap;rounded=0;" parent="1" vertex="1">
          <mxGeometry x="370" y="340" width="60" height="30" as="geometry" />
        </mxCell>
        <mxCell id="VAvJB64YvHKmMoGOeDSp-30" value="&lt;font style=&quot;font-size: 18px;&quot;&gt;*&lt;/font&gt;" style="text;html=1;align=center;verticalAlign=middle;whiteSpace=wrap;rounded=0;" parent="1" vertex="1">
          <mxGeometry x="640" y="430" width="60" height="30" as="geometry" />
        </mxCell>
        <mxCell id="VAvJB64YvHKmMoGOeDSp-31" value="&lt;font style=&quot;font-size: 19px;&quot;&gt;1&lt;/font&gt;" style="text;html=1;align=center;verticalAlign=middle;whiteSpace=wrap;rounded=0;" parent="1" vertex="1">
          <mxGeometry x="640" y="330" width="60" height="30" as="geometry" />
        </mxCell>
        <mxCell id="VAvJB64YvHKmMoGOeDSp-32" value="Relatorio" style="swimlane;whiteSpace=wrap;html=1;" parent="1" vertex="1">
          <mxGeometry x="282" y="800" width="176" height="130" as="geometry" />
        </mxCell>
        <mxCell id="VAvJB64YvHKmMoGOeDSp-33" value="&lt;font style=&quot;font-size: 16px;&quot;&gt;gerarSimplificado()&lt;/font&gt;&lt;div&gt;&lt;font style=&quot;font-size: 16px;&quot;&gt;gerarDetalhado()&lt;/font&gt;&lt;/div&gt;" style="text;html=1;align=left;verticalAlign=middle;resizable=0;points=[];autosize=1;strokeColor=none;fillColor=none;" parent="VAvJB64YvHKmMoGOeDSp-32" vertex="1">
          <mxGeometry y="20" width="160" height="50" as="geometry" />
        </mxCell>
        <mxCell id="VAvJB64YvHKmMoGOeDSp-35" value="" style="edgeStyle=none;rounded=0;orthogonalLoop=1;jettySize=auto;html=1;exitX=0.5;exitY=1;exitDx=0;exitDy=0;entryX=0.5;entryY=0;entryDx=0;entryDy=0;elbow=vertical;" parent="1" source="VAvJB64YvHKmMoGOeDSp-11" target="VAvJB64YvHKmMoGOeDSp-36" edge="1">
          <mxGeometry relative="1" as="geometry">
            <mxPoint x="370" y="670" as="sourcePoint" />
            <mxPoint x="370" y="800" as="targetPoint" />
          </mxGeometry>
        </mxCell>
        <mxCell id="VAvJB64YvHKmMoGOeDSp-36" value="&lt;font style=&quot;font-size: 15px;&quot;&gt;gera&lt;/font&gt;" style="text;html=1;align=center;verticalAlign=middle;whiteSpace=wrap;rounded=0;" parent="1" vertex="1">
          <mxGeometry x="340" y="720" width="60" height="30" as="geometry" />
        </mxCell>
      </root>
    </mxGraphModel>
  </diagram>
</mxfile>
